<svg xmlns="http://www.w3.org/2000/svg" viewBox="0 0 600 660" width="600" height="660"><rect width="600" height="660" fill="#F5F4F1"/><style>.d{fill:none;stroke:#C8842B;stroke-width:1.5;stroke-linecap:round;stroke-linejoin:round}.blueprint .d{stroke:#D9A25A;stroke-width:.9;opacity:.42}.dash{stroke-dasharray:5 7}.stalk{stroke-width:2.4}.node{stroke-width:1.6;opacity:.7}.vein{stroke:#A8681F;stroke-width:.85;opacity:.5}.awn{stroke-width:1.1;opacity:.75}.f-amber{fill:#D98B2B;fill-opacity:.92}.f-amber-l{fill:#EFC183;fill-opacity:.75}.f-green{fill:#1F4A3B;fill-opacity:.92}</style><g class="blueprint">
          <circle class="d dash" cx="300" cy="300" r="216"/>
          <circle class="d" cx="300" cy="300" r="146"/>
          <circle class="d" cx="300" cy="300" r="72"/>
          <path class="d" d="M300 20v620M60 300h480"/>
          <path class="d" d="M108 140h104v104M492 460H388V356"/>
          <path class="d" d="M470 96a204 204 0 0 1 116 152"/>
          <path class="d" d="M118 470a204 204 0 0 0 92 108"/>
          <path class="d" d="M92 236h34M109 219v34M508 372h34M525 355v34M300 566h0"/>
          <rect class="d" x="404" y="150" width="92" height="92" transform="rotate(18 450 196)"/>
        </g><g class="ear">
  <path class="d stalk" d="M300 656C293 574 297 526 300 490"/>
  <path class="d node" d="M293 588h14M294 536h12"/>
  <g class="lf" style="--k:0" transform="translate(296 604) rotate(6)"><path class="d f-green" d="M0 0C-66.6 -119.7 -141.1 -123.1 -196 -86.2C-137.2 -95.9 -64.7 -92.5 0 0Z"/><path class="d vein" d="M0 0C-66.6 -106.9 -139.2 -110.4 -190.1 -88.0"/></g>
  <g class="lf" style="--k:1" transform="translate(304 552) rotate(-4)"><path class="d f-amber-l" d="M0 0C55.8 -99.9 118.1 -102.8 164 -72.2C114.8 -80.5 54.1 -77.6 0 0Z"/><path class="d vein" d="M0 0C55.8 -89.5 116.4 -92.4 159.1 -73.6"/></g>
  <g class="lf" style="--k:2" transform="translate(300.0 470) rotate(-40)"><path class="d f-amber" d="M0 0C23.0 -22.1 25.5 -72.8 -22.1 -130.0C-20.7 -78.0 -18.0 -24.7 0 0Z"/><path class="d vein" d="M0 0C-1.1 -41.6 -11.1 -80.6 -19.4 -117.0"/></g>
  <g class="lf" style="--k:3" transform="translate(300.0 470) rotate(40)"><path class="d f-green" d="M0 0C-23.0 -22.1 -25.5 -72.8 22.1 -130.0C20.7 -78.0 18.0 -24.7 0 0Z"/><path class="d vein" d="M0 0C1.1 -41.6 11.1 -80.6 19.4 -117.0"/></g>
  <g class="lf" style="--k:4" transform="translate(300.0 416) rotate(-36)"><path class="d f-amber-l" d="M0 0C21.7 -20.6 24.1 -67.9 -20.6 -121.2C-19.4 -72.7 -17.0 -23.0 0 0Z"/><path class="d vein" d="M0 0C-1.0 -38.8 -10.3 -75.1 -18.1 -109.1"/></g>
  <g class="lf" style="--k:5" transform="translate(300.0 416) rotate(36)"><path class="d f-amber" d="M0 0C-21.7 -20.6 -24.1 -67.9 20.6 -121.2C19.4 -72.7 17.0 -23.0 0 0Z"/><path class="d vein" d="M0 0C1.0 -38.8 10.3 -75.1 18.1 -109.1"/></g>
  <g class="lf" style="--k:6" transform="translate(300.0 362) rotate(-33)"><path class="d f-amber" d="M0 0C20.4 -19.1 22.6 -62.9 -19.1 -112.4C-18.1 -67.4 -16.0 -21.4 0 0Z"/><path class="d vein" d="M0 0C-1.0 -36.0 -9.6 -69.7 -16.8 -101.2"/></g>
  <g class="lf" style="--k:7" transform="translate(300.0 362) rotate(33)"><path class="d f-amber-l" d="M0 0C-20.4 -19.1 -22.6 -62.9 19.1 -112.4C18.1 -67.4 16.0 -21.4 0 0Z"/><path class="d vein" d="M0 0C1.0 -36.0 9.6 -69.7 16.8 -101.2"/></g>
  <g class="lf" style="--k:8" transform="translate(300.0 308) rotate(-29)"><path class="d f-amber-l" d="M0 0C19.1 -17.6 21.2 -58.0 -17.6 -103.6C-16.8 -62.2 -15.0 -19.7 0 0Z"/><path class="d vein" d="M0 0C-0.9 -33.2 -8.8 -64.2 -15.5 -93.2"/></g>
  <g class="lf" style="--k:9" transform="translate(300.0 308) rotate(29)"><path class="d f-amber" d="M0 0C-19.1 -17.6 -21.2 -58.0 17.6 -103.6C16.8 -62.2 15.0 -19.7 0 0Z"/><path class="d vein" d="M0 0C0.9 -33.2 8.8 -64.2 15.5 -93.2"/></g>
  <g class="lf" style="--k:10" transform="translate(300.0 254) rotate(-26)"><path class="d f-green" d="M0 0C17.8 -16.1 19.8 -53.1 -16.1 -94.8C-15.5 -56.9 -14.0 -18.0 0 0Z"/><path class="d vein" d="M0 0C-0.8 -30.3 -8.1 -58.8 -14.2 -85.3"/></g>
  <g class="lf" style="--k:11" transform="translate(300.0 254) rotate(26)"><path class="d f-amber-l" d="M0 0C-17.8 -16.1 -19.8 -53.1 16.1 -94.8C15.5 -56.9 14.0 -18.0 0 0Z"/><path class="d vein" d="M0 0C0.8 -30.3 8.1 -58.8 14.2 -85.3"/></g>
  <g class="lf" style="--k:12" transform="translate(300.0 200) rotate(-22)"><path class="d f-amber" d="M0 0C16.6 -14.6 18.4 -48.2 -14.6 -86.0C-14.2 -51.6 -13.0 -16.3 0 0Z"/><path class="d vein" d="M0 0C-0.7 -27.5 -7.3 -53.3 -12.9 -77.4"/></g>
  <g class="lf" style="--k:13" transform="translate(300.0 200) rotate(22)"><path class="d f-amber" d="M0 0C-16.6 -14.6 -18.4 -48.2 14.6 -86.0C14.2 -51.6 13.0 -16.3 0 0Z"/><path class="d vein" d="M0 0C0.7 -27.5 7.3 -53.3 12.9 -77.4"/></g>
  <g class="lf" style="--k:14" transform="translate(300.0 196)"><path class="d f-amber" d="M0 0C-18.4 -13.6 -20.4 -44.8 0.0 -80C6.8 -48.0 14.4 -15.2 0 0Z"/><path class="d vein" d="M0 0C0.0 -25.6 0.0 -49.6 0.0 -72.0"/></g>
  <path class="d awn" d="M300.0 118Q304 80 281 42 M300.0 118Q301 70 288 23 M300.0 118Q300 65 300 12 M300.0 118Q299 70 312 23 M300.0 118Q296 80 319 42"/>
</g></svg>